<?xml version="1.0" encoding="UTF-8"?><!-- Generator: Adobe Illustrator 22.0.1, SVG Export Plug-In . SVG Version: 6.00 Build 0)  --><svg xmlns="http://www.w3.org/2000/svg" enable-background="new 0 0 500 34.7" id="Layer_1" version="1.1" viewBox="0 0 500 34.7" x="0px" xml:space="preserve" y="0px">
<g id="change1_1">
	<path d="m499.7 6.7c0.7-0.9 0.1-2.6-1.3-2.2-3.2 1.1-6.1 3.8-8.8 5.9-2.7 2-5.4 4-8 6-0.2-0.1-0.4-0.1-0.6-0.1-5.9 0.1-11.9 0.1-17.8 0.2l6-4.8c3-2.4 6.5-4.7 9.1-7.6 1-1.2-0.3-2.9-1.7-2.2-3.2 1.6-6 4.4-8.6 6.8s-5.1 5-7.3 7.7c-6.6 0.1-13.3 0.2-19.9 0.2 1.5-2.3 3.1-4.6 4.8-6.9 2-2.7 4.8-5.3 6-8.4 0.4-1-1-2-1.8-1.4-2.8 1.7-4.6 5.2-6.4 7.8-1.9 2.9-3.7 5.8-5.2 8.9-38.1 0.4-76.2 0.9-114.3 1.5-25 0.6-49.5 1.1-73.8 1.7h-0.1c-24.5-0.6-48.8-1.1-73.8-1.1-38-1-76.1-1.4-114.2-1.8-1.6-3.1-3.3-6.1-5.2-8.9-1.8-2.6-3.7-6.1-6.4-7.8-0.9-0.5-2.2 0.4-1.8 1.4 1.2 3.2 4 5.7 6 8.4 1.7 2.2 3.2 4.5 4.8 6.9-6.6-0.1-13.3-0.2-19.9-0.2-2.2-2.8-4.7-5.3-7.3-7.7s-5.4-5.2-8.6-6.8c-1.4-0.7-2.7 1-1.7 2.2 2.5 2.9 6.1 5.1 9.1 7.6l6 4.8c-6.1-0.3-12-0.3-18-0.4-0.2 0-0.4 0-0.6 0.1-2.6-2.1-5.3-4.1-8-6-2.7-2-5.6-4.8-8.8-5.9-1.4-0.5-2 1.3-1.3 2.2 2 2.5 5.3 4.2 8 6.1s5.4 3.7 8.1 5.5c-5.2 3.1-10.8 6.2-15.1 10.2-1.3 1.2 0.4 2.9 1.7 2.3 5.7-2.7 11.1-7.2 16.1-11 5.8 0.1 11.6 0.2 17.5 0.3-2.3 1.6-4.6 3.3-6.9 5-2.7 2-6 3.9-8.1 6.5-0.9 1.2 0.2 2.6 1.6 2 3-1.4 5.7-4.1 8.3-6.1 2.9-2.4 5.9-4.7 8.7-7.2 0 0 0-0.1 0.1-0.1 6.1 0.1 12.3 0.2 18.4 0.3-1.8 1.7-3.5 3.4-5.3 5.1-2.3 2.2-5.7 4.6-7 7.5-0.5 1.2 0.5 2.2 1.7 1.7 2.9-1.3 5.3-4.7 7.6-6.9 2.4-2.4 4.7-4.8 7-7.2 37.7 0.6 75.4 1.3 113.1 1.8h0.4c23.6-0.1 46.5 0.2 69.5 0.4 0.1 0 0.3 0.1 0.5 0.1h3.8 0.2 3.8c0.2 0 0.3 0 0.5-0.1 23.1-0.2 46.2-0.5 69.9-1 37.6-0.5 75.4-1.2 113-1.8 2.3 2.5 4.7 4.8 7 7.2 2.3 2.3 4.6 5.6 7.6 6.9 1.1 0.5 2.2-0.5 1.7-1.7-1.4-2.9-4.7-5.3-7-7.5-1.7-1.7-3.5-3.4-5.3-5.1 6.1-0.1 12.3-0.2 18.4-0.3 0 0 0 0.1 0.1 0.1 2.8 2.5 5.7 4.8 8.7 7.2 2.6 2.1 5.3 4.8 8.3 6.1 1.4 0.6 2.5-0.9 1.6-2-2.1-2.6-5.4-4.5-8.1-6.5-2.3-1.7-4.6-3.3-6.9-5 5.8-0.1 11.6-0.2 17.5-0.3 5.1 3.8 10.5 8.3 16.1 11 1.4 0.7 3-1.1 1.7-2.3-4.3-4-9.9-7.1-15.1-10.2 2.7-1.8 5.4-3.6 8.1-5.5 2.6-1.3 5.9-3 7.9-5.6z" fill="#eaa997"/>
</g>
</svg>